<?xml version="1.0" encoding="UTF-8" standalone="no"?>
<svg
   version="1.1"
   id="svg1"
   width="197.12"
   height="196.48"
   viewBox="0 0 197.12 196.48"
   sodipodi:docname="tabibitoNew.svg"
   inkscape:version="1.4 (86a8ad7, 2024-10-11)"
   xmlns:inkscape="http://www.inkscape.org/namespaces/inkscape"
   xmlns:sodipodi="http://sodipodi.sourceforge.net/DTD/sodipodi-0.dtd"
   xmlns="http://www.w3.org/2000/svg"
   xmlns:svg="http://www.w3.org/2000/svg">
  <defs
     id="defs1" />
  <sodipodi:namedview
     id="namedview1"
     pagecolor="#ffffff"
     bordercolor="#000000"
     borderopacity="0.25"
     inkscape:showpageshadow="2"
     inkscape:pageopacity="0.0"
     inkscape:pagecheckerboard="0"
     inkscape:deskcolor="#d1d1d1"
     showgrid="false"
     inkscape:zoom="9.1001631"
     inkscape:cx="98.514718"
     inkscape:cy="98.239998"
     inkscape:window-width="3840"
     inkscape:window-height="2050"
     inkscape:window-x="-12"
     inkscape:window-y="-12"
     inkscape:window-maximized="1"
     inkscape:current-layer="svg1" />
  <g
     id="g1"
     transform="matrix(0.75,0,0,0.75,24.639998,49.044144)">
    <path
       style="fill:#000000"
       d="m 75.858853,195.66434 c -3.460719,-2.33218 -2.734239,-4.07374 5.121879,-12.27844 5.02475,-5.24771 6.310264,-6.76253 6.089262,-7.17548 -2.581025,-4.82269 0.802241,-12.9097 6.502459,-15.54281 8.703207,-4.02028 19.056637,3.98534 17.159747,13.2685 -0.20379,0.99732 -0.38887,2.11746 -0.41128,2.48918 -0.0284,0.47024 1.76034,2.54763 5.87924,6.82809 3.256,3.38372 6.172,6.60534 6.48,7.15914 1.49008,2.67928 -0.54964,5.97262 -3.70104,5.97571 -1.90695,0.002 -1.04588,0.75497 -11.6085,-10.15289 -3.17046,-3.27408 -3.17046,-3.27408 -4.93046,-2.65045 -2.616673,0.9272 -6.227674,0.75132 -8.967154,-0.43676 -0.347779,-0.15083 -2.174992,1.55296 -6.386407,5.95501 -7.617219,7.96202 -8.437635,8.44145 -11.227746,6.5612 z m 43.205177,-22.41156 c -0.009,-0.0348 -0.0833,-0.92735 -0.1654,-1.98335 -1.95747,-25.17704 -38.858962,-26.1275 -40.377727,-1.04 -0.203605,3.36322 0.09825,3.27396 -5.085166,1.50378 -28.397069,-9.69783 -50.35557,-39.37805 -50.35557,-68.06312 0,-1.36327 0,-1.36327 75.566959,-1.35933 l 75.566964,0.004 -0.21273,3.29037 c -1.91691,29.64986 -21.99523,56.31229 -49.6412,65.91962 -4.0554,1.4093 -5.2759,1.80754 -5.29613,1.72809 z M 2.8459721,93.970626 C -0.49953994,92.20423 -0.08527489,88.994017 3.9619481,85.322742 8.0197581,81.641863 21.601369,69.251167 25.124814,66.01556 c 1.740555,-1.598366 3.412464,-3.12212 3.715353,-3.38612 0.302889,-0.264 2.042866,-1.848 3.866616,-3.52 5.307504,-4.865882 11.120418,-10.174773 14.540793,-13.28 6.333857,-5.750266 11.591976,-10.567761 15.35259,-14.066061 2.112,-1.964682 5.28,-4.852972 7.04,-6.418423 1.76,-1.565451 5,-4.511209 7.2,-6.54613 2.2,-2.034921 5.42889,-4.9935 7.175312,-6.57462 1.746421,-1.581121 3.480007,-3.162765 3.852413,-3.514765 8.919448,-8.43071063 10.719983,-9.47174874 13.025079,-7.5308822 0.41095,0.346015 1.47928,1.2460149 2.37405,2 0.89478,0.7539852 5.21478,4.6662322 9.6,8.6938822 4.38523,4.02765 9.41314,8.645458 11.17314,10.261797 1.76,1.616338 5.864,5.361903 9.12,8.323478 8.53484,7.763065 15.91546,14.494888 17.76001,16.198804 0.88,0.812906 4.408,4.039785 7.84,7.170844 3.432,3.131058 7.752,7.086829 9.6,8.790602 1.848,1.703772 4.95331,4.527352 6.90069,6.274621 1.94738,1.747269 6.82772,6.200852 10.84519,9.896852 4.01748,3.696 7.80999,7.152 8.42781,7.68 2.74476,2.345714 2.62269,6.052578 -0.24754,7.516857 -1.969,1.00451 -189.5372379,0.98916 -191.4403479,-0.0157 z"
       id="path1" />
  </g>
</svg>
